<?xml version="1.0" encoding="UTF-8" standalone="no"?>
<!-- Created with Inkscape (http://www.inkscape.org/) -->
36
<svg
   xmlns:dc="http://purl.org/dc/elements/1.1/"
   xmlns:cc="http://creativecommons.org/ns#"
   xmlns:rdf="http://www.w3.org/1999/02/22-rdf-syntax-ns#"
   xmlns:svg="http://www.w3.org/2000/svg"
   xmlns="http://www.w3.org/2000/svg"
   xmlns:sodipodi="http://sodipodi.sourceforge.net/DTD/sodipodi-0.dtd"
   xmlns:inkscape="http://www.inkscape.org/namespaces/inkscape"
   id="svg2"
   version="1.1"
   inkscape:version="0.48.4 r9939"
   width="1052.3625"
   height="744.1"
   xml:space="preserve"
   sodipodi:docname="UHURU_print.ai"><metadata
     id="metadata8"><rdf:RDF><cc:Work
         rdf:about=""><dc:format>image/svg+xml</dc:format><dc:type
           rdf:resource="http://purl.org/dc/dcmitype/StillImage" /><dc:title></dc:title></cc:Work></rdf:RDF></metadata><defs
     id="defs6"><clipPath
       clipPathUnits="userSpaceOnUse"
       id="clipPath16"><path
         d="m 0,595.28 841.89,0 L 841.89,0 0,0 0,595.28 z"
         id="path18" /></clipPath></defs><sodipodi:namedview
     pagecolor="#ffffff"
     bordercolor="#666666"
     borderopacity="1"
     objecttolerance="10"
     gridtolerance="10"
     guidetolerance="10"
     inkscape:pageopacity="0"
     inkscape:pageshadow="2"
     inkscape:window-width="1680"
     inkscape:window-height="995"
     id="namedview4"
     showgrid="false"
     inkscape:zoom="0.31716168"
     inkscape:cx="526.18127"
     inkscape:cy="372.04999"
     inkscape:window-x="0"
     inkscape:window-y="27"
     inkscape:window-maximized="1"
     inkscape:current-layer="g14" /><g
     id="g10"
     inkscape:groupmode="layer"
     inkscape:label="UHURU_print"
     transform="matrix(1.25,0,0,-1.25,0,744.1)"><g
       id="g12"><g
         id="g14"
         clip-path="url(#clipPath16)"><g
           id="g20"
           transform="translate(453.1758,324.9873)"><path
             d="m 0,0 c -0.896,4.607 -5.357,7.61 -9.965,6.712 -4.603,-0.899 -7.612,-5.359 -6.713,-9.967 L -26.817,-8.16 c -0.126,2.773 -0.367,5.037 -0.675,6.619 -0.903,4.605 -5.363,7.61 -9.97,6.712 -4.044,-0.789 -6.851,-4.33 -6.869,-8.3 -10.533,9.938 -34.219,30.798 -44.224,27.537 -6.156,-2.007 -11.299,-4.841 -15.035,-7.284 5.753,55.799 22.278,77.819 36.58,86.17 17.932,10.471 37.981,2.228 48.342,-3.618 4.085,-2.305 9.266,-0.863 11.574,3.223 2.303,4.086 0.864,9.27 -3.224,11.577 -23.362,13.184 -46.537,14.425 -65.261,3.492 -31.26,-18.251 -47.111,-67.314 -47.111,-145.825 0,-4.693 3.804,-8.497 8.496,-8.497 4.692,0 8.498,3.804 8.498,8.497 0,0.527 0.003,1.045 0.009,1.571 2.639,11.096 23.524,6.291 32.973,-5.039 10,-11.989 11.894,-20.762 11.894,-39.054 l 0.006,0 c -0.155,-2.749 0.452,-5.418 2.827,-7.189 1.525,-1.141 2.877,-1.37 4.296,-1.37 1.953,0 4.018,1.285 5.686,3.514 4.032,5.395 6.859,10.779 9.414,16.859 1.838,4.366 2.345,6.275 3.61,10.119 1.929,5.854 11.975,3.36 9.512,-3.185 -1.777,-4.73 -3.026,-7.172 -6.178,-12.607 -2.353,-4.057 -2.036,-9.082 1.721,-11.894 1.522,-1.14 3.308,-1.691 5.078,-1.691 2.588,0 5.145,1.181 6.813,3.411 C 1.426,-48.376 1.998,-10.218 0,0"
             style="fill:#ffffff;fill-opacity:1;fill-rule:nonzero;stroke:none"
             id="path22" /></g><g
           id="g24"
           transform="translate(516.1562,343.4004)"><path
             d="m 0,0 c 0,10.243 -8.301,18.546 -18.545,18.546 -10.24,0 -18.545,-8.303 -18.545,-18.546 0,-10.243 8.305,-18.546 18.545,-18.546 C -8.301,-18.546 0,-10.243 0,0"
             style="fill:#444443;fill-opacity:1;fill-rule:nonzero;stroke:none"
             id="path26" /></g><g
           id="g28"
           transform="translate(497.6113,368.3184)"><path
             d="m 0,0 c -13.738,0 -24.916,-11.179 -24.916,-24.918 0,-13.74 11.178,-24.919 24.916,-24.919 13.74,0 24.918,11.179 24.918,24.919 C 24.918,-11.179 13.74,0 0,0 m 0,-6.372 c 10.244,0 18.545,-8.303 18.545,-18.546 0,-10.243 -8.301,-18.546 -18.545,-18.546 -10.24,0 -18.545,8.303 -18.545,18.546 0,10.243 8.305,18.546 18.545,18.546"
             style="fill:#ffffff;fill-opacity:1;fill-rule:nonzero;stroke:none"
             id="path30" /></g><g
           id="g32"
           transform="translate(507.6211,343.4004)"><path
             d="m 0,0 c 0,6.453 -5.229,11.684 -11.678,11.684 -6.457,0 -11.689,-5.231 -11.689,-11.684 0,-6.453 5.232,-11.683 11.689,-11.683 C -5.229,-11.683 0,-6.453 0,0"
             style="fill:#ffffff;fill-opacity:1;fill-rule:nonzero;stroke:none"
             id="path34" /></g><g
           id="g36"
           transform="translate(364.9722,343.4004)"><path
             d="m 0,0 c 0,10.243 8.302,18.546 18.551,18.546 10.238,0 18.542,-8.303 18.542,-18.546 0,-10.243 -8.304,-18.546 -18.542,-18.546 C 8.302,-18.546 0,-10.243 0,0"
             style="fill:#444443;fill-opacity:1;fill-rule:nonzero;stroke:none"
             id="path38" /></g><g
           id="g40"
           transform="translate(383.5234,368.3184)"><path
             d="m 0,0 c -13.742,0 -24.923,-11.179 -24.923,-24.918 0,-13.74 11.181,-24.919 24.923,-24.919 13.739,0 24.915,11.179 24.915,24.919 C 24.915,-11.179 13.739,0 0,0 m 0,-6.372 c 10.237,0 18.542,-8.303 18.542,-18.546 0,-10.243 -8.305,-18.546 -18.542,-18.546 -10.25,0 -18.551,8.303 -18.551,18.546 0,10.243 8.301,18.546 18.551,18.546"
             style="fill:#ffffff;fill-opacity:1;fill-rule:nonzero;stroke:none"
             id="path42" /></g><g
           id="g44"
           transform="translate(373.5088,343.4004)"><path
             d="m 0,0 c 0,6.453 5.231,11.684 11.683,11.684 6.454,0 11.683,-5.231 11.683,-11.684 0,-6.453 -5.229,-11.683 -11.683,-11.683 C 5.231,-11.683 0,-6.453 0,0"
             style="fill:#ffffff;fill-opacity:1;fill-rule:nonzero;stroke:none"
             id="path46" /></g><g
           id="g48"
           transform="translate(440.1211,299.0449)"><path
             d="m 0,0 c -49.457,0 -47.021,47.954 -47.021,52.638 0,4.683 2.81,24.54 48.144,24.54 l -0.205,0 c 45.332,0 48.143,-19.857 48.143,-24.54 C 49.061,47.954 51.496,0 2.041,0 L 0,0 z"
             style="fill:#ffffff;fill-opacity:1;fill-rule:nonzero;stroke:none"
             id="path50" /></g><g
           id="g52"
           transform="translate(441.252,305.7441)"><path
             d="M 0,0 C -16.964,0 -34.77,10.274 -38.342,23.967 -42.984,41.778 -27.375,47.18 -19.246,45.051 -11.371,42.991 -4.58,42.527 0,42.527 l -0.223,0 c 4.58,0 11.375,0.464 19.25,2.524 C 27.152,47.18 42.76,41.778 38.119,23.967 34.551,10.274 16.742,0 -0.223,0 L 0,0 z"
             style="fill:#444443;fill-opacity:1;fill-rule:nonzero;stroke:none"
             id="path54" /></g><g
           id="g56"
           transform="translate(413.646,334.2217)"><path
             d="m 0,0 c 0,4.449 3.607,8.054 8.056,8.054 4.448,0 8.055,-3.605 8.055,-8.054 0,-4.45 -3.607,-8.056 -8.055,-8.056 C 3.607,-8.056 0,-4.45 0,0"
             style="fill:#ffffff;fill-opacity:1;fill-rule:nonzero;stroke:none"
             id="path58" /></g><g
           id="g60"
           transform="translate(452.5273,334.2217)"><path
             d="m 0,0 c 0,4.449 3.605,8.054 8.053,8.054 4.449,0 8.056,-3.605 8.056,-8.054 0,-4.45 -3.607,-8.056 -8.056,-8.056 C 3.605,-8.056 0,-4.45 0,0"
             style="fill:#ffffff;fill-opacity:1;fill-rule:nonzero;stroke:none"
             id="path62" /></g><g
           id="g64"
           transform="translate(293.7124,217.082)" /><g
           id="g68"
           transform="translate(371.8052,207.1152)" /><g
           id="g80"
           transform="translate(605.3027,214.7363)" /></g></g></g></svg>
