<?xml version='1.0' encoding='UTF-8'?>
<svg version="1.1" id="Calque_1" xmlns="http://www.w3.org/2000/svg" xmlns:xlink="http://www.w3.org/1999/xlink" x="0px" y="0px" viewBox="0 0 36 40" style="enable-background:new 0 0 36 40;" xml:space="preserve">

<g>
	<path class="st0" d="M13.7,34.4l1.8,3.9c0.8,0.1,1.5,0.2,2.3,0.2c0.3,0,0.6,0,0.8,0C17.4,35.8,15,34.8,13.7,34.4L13.7,34.4z"></path>
	<path class="st0" d="M17.9,26.5c-5.5,0-10.7-1.3-15-3.6c0,0.2,0,0.3,0,0.5c0,0.2,0,0.4,0,0.6c4.2,3.5,9.3,5.5,14.7,5.5   c5.6,0,11.1-2.2,15.4-6.1c0-0.2,0-0.3,0-0.5C28.6,25.2,23.3,26.5,17.9,26.5L17.9,26.5z"></path>
	<path class="st0" d="M32.8,21.8c-0.6-5.4-4-9.9-8.6-12l-2.1,6.4c0.6,0.5,0.9,1.2,0.7,2c-0.1,0.9-0.8,1.6-1.6,1.7   c-0.2,0-0.3,0-0.5,0c-0.3,0-0.6,0-0.8-0.1C14,18,12.1,13.4,11.6,9.8c-4.7,2.2-8.1,6.7-8.7,12.1c4.2,2.3,9.5,3.7,15,3.7   C23.3,25.5,28.6,24.2,32.8,21.8L32.8,21.8z"></path>
	<path class="st0" d="M2.9,25.4C3.8,31.6,8.3,36.6,14.3,38l-1.8-3.8l0-0.1c0-0.2,0.1-0.5,0.3-0.6c0.2-0.2,0.4-0.2,0.7-0.2   c1.3,0.2,4.8,1.3,6.4,5c6.9-0.9,12.4-6.5,13-13.5c-4.4,3.6-9.7,5.7-15.3,5.7C12.2,30.5,7.2,28.7,2.9,25.4L2.9,25.4z"></path>
	<g>
		<path class="st0" d="M11.1,7.9c-1,0-1.9-0.8-2.2-1.7c0-0.2-0.1-0.4-0.1-0.6c0-0.9,0.5-1.7,1.2-2.1c0.1,0.1,3.9,4,3.9,4    c0.1,0.1,0,0.4-0.1,0.4H11.1L11.1,7.9z"></path>
		<path class="st0" d="M23,5.9c0.8-0.6,1.1-1.7,0.8-2.6c-0.1-0.2-0.1-0.3-0.3-0.4c-0.6-0.7-1.4-1-2.3-0.9c0,0.2-0.7,5.5-0.7,5.5    c0,0.2,0.2,0.3,0.3,0.2L23,5.9L23,5.9z"></path>
	</g>
	<g>
		<path class="st0" d="M21.2,16.9l-0.4-0.2l2.4-7.3c-1.7-0.6-3.5-1-5.4-1c-1.9,0-3.7,0.3-5.3,1c0.7,6,4.5,8.5,7.6,9.5    c0.3,0.1,0.5,0.1,0.8,0.1c0.7-0.1,0.8-0.7,0.8-0.9C21.9,17.7,21.7,17.1,21.2,16.9z M16.1,11.3c-0.6,0-1.1,0.6-1.1,0    c0-0.6,0.5-1.1,1.1-1.1c0.6,0,1.1,0.5,1.1,1.1C17.2,11.9,16.7,11.3,16.1,11.3z M19.8,11.3c-0.6,0-1.1,0.6-1.1,0    c0-0.6,0.5-1.1,1.1-1.1c0.6,0,1.1,0.5,1.1,1.1C20.9,11.9,20.4,11.3,19.8,11.3z"></path>
	</g>
</g>
</svg>